<?xml version="1.0" standalone="no"?>
<!DOCTYPE svg PUBLIC "-//W3C//DTD SVG 20010904//EN"
 "http://www.w3.org/TR/2001/REC-SVG-20010904/DTD/svg10.dtd">
<svg version="1.0" xmlns="http://www.w3.org/2000/svg"
 width="736.000000pt" height="736.000000pt" viewBox="0 0 736.000000 736.000000"
 preserveAspectRatio="xMidYMid meet">

<g transform="translate(0.000000,736.000000) scale(0.100000,-0.100000)"
fill="#000000" stroke="none">
<path d="M0 3680 l0 -3680 3680 0 3680 0 0 3680 0 3680 -3680 0 -3680 0 0
-3680z m4794 1586 c62 -19 123 -62 143 -99 32 -63 30 -66 -499 -593 -522 -520
-527 -524 -651 -555 -27 -6 -84 -10 -131 -7 -70 4 -95 10 -162 42 -74 35 -95
54 -352 309 -151 150 -280 284 -288 299 -22 42 -17 74 17 112 76 88 229 115
345 62 45 -21 96 -65 253 -219 187 -185 200 -196 295 -243 95 -47 101 -49 201
-52 68 -3 109 0 121 8 18 11 18 11 0 6 -12 -4 -24 0 -33 14 -8 11 -22 20 -32
20 -12 0 -18 7 -17 18 0 10 -11 22 -31 31 -18 8 -33 20 -33 26 0 6 -11 18 -25
25 -14 7 -25 19 -25 27 0 7 -9 13 -20 13 -32 0 -24 35 17 82 62 71 575 587
617 621 77 61 192 82 290 53z m-2023 -820 c459 -460 497 -500 534 -572 40 -77
40 -77 40 -193 0 -115 -1 -118 -37 -192 -34 -67 -63 -100 -325 -361 -282 -282
-290 -288 -329 -288 -114 0 -192 210 -133 358 19 48 50 85 205 242 264 269
315 358 313 547 -1 84 -3 93 -12 65 -6 -21 -15 -31 -24 -28 -7 3 -13 -1 -13
-9 0 -8 -7 -15 -15 -15 -8 0 -15 -6 -15 -13 0 -7 -22 -30 -50 -50 -27 -21 -50
-42 -50 -48 0 -6 -4 -7 -10 -4 -5 3 -15 -3 -22 -15 -15 -23 -43 -28 -34 -5 3
8 0 14 -7 12 -7 -1 -11 3 -10 10 2 7 -3 10 -10 7 -7 -2 -152 136 -328 313
-356 358 -354 355 -354 493 0 62 5 85 28 132 36 73 76 108 126 108 36 0 56
-18 532 -494z m1069 91 c0 -2 -10 -12 -22 -23 l-23 -19 19 23 c18 21 26 27 26
19z m927 -32 c63 -42 111 -172 99 -268 -13 -92 -41 -133 -222 -317 -208 -212
-213 -218 -263 -311 -75 -139 -84 -286 -27 -411 24 -52 76 -113 76 -89 0 9 5
8 16 -3 8 -9 18 -16 22 -16 3 0 1 5 -6 12 -15 15 -15 28 0 28 19 0 48 31 48
52 0 10 7 18 15 18 8 0 15 6 15 13 1 20 79 97 100 97 23 0 26 10 8 28 -9 9 -6
12 15 12 34 0 34 16 0 54 -15 17 104 -99 264 -258 342 -340 348 -348 348 -481
0 -78 -4 -97 -27 -141 -36 -68 -79 -104 -125 -104 -34 0 -55 18 -334 298 -165
163 -297 302 -294 309 2 8 -2 10 -12 6 -12 -5 -15 -2 -10 9 3 10 -3 23 -16 35
l-22 18 19 -22 c11 -13 15 -23 10 -23 -5 0 -91 82 -191 183 -151 151 -187 193
-212 245 -43 93 -57 184 -42 272 25 138 47 167 350 474 152 153 289 284 306
291 34 15 57 12 92 -10z m-99 -1128 c8 -10 6 -13 -9 -14 -19 -2 -25 8 -12 20
8 9 9 9 21 -6z m-873 -41 c28 -7 70 -23 95 -36 54 -27 452 -418 443 -434 -3
-6 -2 -8 2 -3 12 10 56 -33 48 -47 -3 -6 -3 -8 2 -4 11 11 36 -12 28 -25 -3
-5 -2 -7 4 -4 5 3 32 -16 59 -44 43 -43 49 -54 48 -90 -2 -51 -28 -80 -111
-121 -56 -27 -69 -30 -140 -27 -62 3 -90 10 -135 33 -52 26 -96 69 -90 88 1 4
-4 5 -12 2 -15 -6 -59 43 -50 57 3 5 -1 7 -8 4 -7 -3 -61 43 -123 106 -125
126 -215 190 -318 227 -121 43 -271 32 -352 -26 l-20 -14 20 6 c19 7 19 6 2
-11 -13 -14 -20 -15 -25 -6 -11 17 -52 -12 -51 -35 0 -12 3 -11 9 6 11 27 40
29 40 3 0 -21 23 -45 33 -34 4 3 7 -5 7 -19 0 -14 7 -28 14 -31 8 -3 22 -20
32 -38 9 -18 27 -44 40 -58 13 -14 22 -32 19 -39 -2 -7 2 -15 10 -18 8 -3 21
-19 29 -34 12 -26 12 -31 -3 -44 -10 -9 -21 -13 -26 -9 -4 5 -5 2 -1 -5 13
-21 -445 -472 -509 -501 -110 -51 -249 -34 -330 40 -50 46 -56 63 -41 107 14
41 962 993 1025 1030 95 56 234 76 336 48z m-414 -629 c-15 -19 -1 -30 18 -15
10 8 9 4 -3 -10 -23 -27 -33 -28 -31 -4 1 19 13 42 22 42 3 0 0 -6 -6 -13z"/>
<path d="M4995 2530 c10 -11 20 -20 23 -20 3 0 -3 9 -13 20 -10 11 -20 20 -23
20 -3 0 3 -9 13 -20z"/>
<path d="M3079 2913 c-13 -16 -12 -17 4 -4 16 13 21 21 13 21 -2 0 -10 -8 -17
-17z"/>
</g>
</svg>
